<svg width="73" height="27" viewBox="0 0 73 27" fill="none" xmlns="http://www.w3.org/2000/svg">
<g filter="url(#filter0_d_2_4)">
<path d="M4.23828 18V16.5234L6.14844 16.1953V2.75391L4.23828 2.42578V0.9375H16.8711V5.03906H15.0195L14.7617 2.71875H8.45703V8.27344H14.75V10.0898H8.45703V16.2656H15.1367L15.3945 13.9102H17.2344V18H4.23828ZM19.4141 18V16.5234L20.6797 16.3477L26.6445 0.9375H28.625L34.4844 16.3477L35.7383 16.5234V18H30.8398V16.5234L32.1289 16.3008L31.0039 13.1602H24.1719L23.0117 16.3008L24.3008 16.5234V18H19.4141ZM24.8867 11.2266H30.3008L27.793 4.28906L27.6523 3.90234H27.582L27.4414 4.28906L24.8867 11.2266ZM37.5195 18V16.5234L39.4297 16.1953V2.75391L37.5195 2.42578V0.9375H50.1523V5.03906H48.3008L48.043 2.71875H41.7383V8.27344H48.0312V10.0898H41.7383V16.2656H48.418L48.6758 13.9102H50.5156V18H37.5195ZM60.7227 18.2461C59.5508 18.2461 58.5039 18.0156 57.582 17.5547C56.6602 17.0938 55.9336 16.4375 55.4023 15.5859C54.8711 14.7266 54.6055 13.6992 54.6055 12.5039V2.75391L52.6953 2.42578V0.9375H58.8242V2.42578L56.9141 2.75391V12.5039C56.9141 13.7773 57.2695 14.7461 57.9805 15.4102C58.6914 16.0664 59.6172 16.3945 60.7578 16.3945C61.9062 16.3945 62.8438 16.0703 63.5703 15.4219C64.3047 14.7734 64.6719 13.8008 64.6719 12.5039V2.75391L62.7617 2.42578V0.9375H68.8906V2.42578L66.9805 2.75391V12.5039C66.9805 14.3555 66.4062 15.7773 65.2578 16.7695C64.1172 17.7539 62.6055 18.2461 60.7227 18.2461Z" fill="black"/>
<path d="M4.23828 18H3.23828V19H4.23828V18ZM4.23828 16.5234L4.06898 15.5379L3.23828 15.6806V16.5234H4.23828ZM6.14844 16.1953L6.31774 17.1809L7.14844 17.0382V16.1953H6.14844ZM6.14844 2.75391H7.14844V1.91104L6.31774 1.76834L6.14844 2.75391ZM4.23828 2.42578H3.23828V3.26865L4.06898 3.41135L4.23828 2.42578ZM4.23828 0.9375V-0.0625H3.23828V0.9375H4.23828ZM16.8711 0.9375H17.8711V-0.0625H16.8711V0.9375ZM16.8711 5.03906V6.03906H17.8711V5.03906H16.8711ZM15.0195 5.03906L14.0256 5.14949L14.1245 6.03906H15.0195V5.03906ZM14.7617 2.71875L15.7556 2.60832L15.6568 1.71875H14.7617V2.71875ZM8.45703 2.71875V1.71875H7.45703V2.71875H8.45703ZM8.45703 8.27344H7.45703V9.27344H8.45703V8.27344ZM14.75 8.27344H15.75V7.27344H14.75V8.27344ZM14.75 10.0898V11.0898H15.75V10.0898H14.75ZM8.45703 10.0898V9.08984H7.45703V10.0898H8.45703ZM8.45703 16.2656H7.45703V17.2656H8.45703V16.2656ZM15.1367 16.2656V17.2656H16.0332L16.1308 16.3744L15.1367 16.2656ZM15.3945 13.9102V12.9102H14.498L14.4005 13.8014L15.3945 13.9102ZM17.2344 13.9102H18.2344V12.9102H17.2344V13.9102ZM17.2344 18V19H18.2344V18H17.2344ZM5.23828 18V16.5234H3.23828V18H5.23828ZM4.40758 17.509L6.31774 17.1809L5.97914 15.2097L4.06898 15.5379L4.40758 17.509ZM7.14844 16.1953V2.75391H5.14844V16.1953H7.14844ZM6.31774 1.76834L4.40758 1.44022L4.06898 3.41135L5.97914 3.73947L6.31774 1.76834ZM5.23828 2.42578V0.9375H3.23828V2.42578H5.23828ZM4.23828 1.9375H16.8711V-0.0625H4.23828V1.9375ZM15.8711 0.9375V5.03906H17.8711V0.9375H15.8711ZM16.8711 4.03906H15.0195V6.03906H16.8711V4.03906ZM16.0134 4.92863L15.7556 2.60832L13.7678 2.82918L14.0256 5.14949L16.0134 4.92863ZM14.7617 1.71875H8.45703V3.71875H14.7617V1.71875ZM7.45703 2.71875V8.27344H9.45703V2.71875H7.45703ZM8.45703 9.27344H14.75V7.27344H8.45703V9.27344ZM13.75 8.27344V10.0898H15.75V8.27344H13.75ZM14.75 9.08984H8.45703V11.0898H14.75V9.08984ZM7.45703 10.0898V16.2656H9.45703V10.0898H7.45703ZM8.45703 17.2656H15.1367V15.2656H8.45703V17.2656ZM16.1308 16.3744L16.3886 14.019L14.4005 13.8014L14.1427 16.1568L16.1308 16.3744ZM15.3945 14.9102H17.2344V12.9102H15.3945V14.9102ZM16.2344 13.9102V18H18.2344V13.9102H16.2344ZM17.2344 17H4.23828V19H17.2344V17ZM19.4141 18H18.4141V19H19.4141V18ZM19.4141 16.5234L19.2765 15.5329L18.4141 15.6527V16.5234H19.4141ZM20.6797 16.3477L20.8173 17.3381L21.3999 17.2572L21.6123 16.7086L20.6797 16.3477ZM26.6445 0.9375V-0.0625H25.9593L25.712 0.576526L26.6445 0.9375ZM28.625 0.9375L29.5597 0.582096L29.3146 -0.0625H28.625V0.9375ZM34.4844 16.3477L33.5497 16.7031L33.7599 17.2559L34.3455 17.338L34.4844 16.3477ZM35.7383 16.5234H36.7383V15.6538L35.8771 15.5331L35.7383 16.5234ZM35.7383 18V19H36.7383V18H35.7383ZM30.8398 18H29.8398V19H30.8398V18ZM30.8398 16.5234L30.6696 15.538L29.8398 15.6814V16.5234H30.8398ZM32.1289 16.3008L32.2991 17.2862L33.4716 17.0837L33.0703 15.9636L32.1289 16.3008ZM31.0039 13.1602L31.9453 12.8229L31.7079 12.1602H31.0039V13.1602ZM24.1719 13.1602V12.1602H23.4752L23.2338 12.8136L24.1719 13.1602ZM23.0117 16.3008L22.0737 15.9543L21.6572 17.0816L22.8415 17.2862L23.0117 16.3008ZM24.3008 16.5234H25.3008V15.6814L24.471 15.538L24.3008 16.5234ZM24.3008 18V19H25.3008V18H24.3008ZM24.8867 11.2266L23.9483 10.881L23.4528 12.2266H24.8867V11.2266ZM30.3008 11.2266V12.2266H31.7256L31.2412 10.8866L30.3008 11.2266ZM27.793 4.28906L28.7334 3.94911L28.7328 3.94732L27.793 4.28906ZM27.6523 3.90234L28.5921 3.5606L28.3528 2.90234H27.6523V3.90234ZM27.582 3.90234V2.90234H26.8816L26.6422 3.5606L27.582 3.90234ZM27.4414 4.28906L28.3798 4.63462L28.3812 4.63081L27.4414 4.28906ZM20.4141 18V16.5234H18.4141V18H20.4141ZM19.5516 17.5139L20.8173 17.3381L20.5421 15.3572L19.2765 15.5329L19.5516 17.5139ZM21.6123 16.7086L27.5771 1.29847L25.712 0.576526L19.7471 15.9867L21.6123 16.7086ZM26.6445 1.9375H28.625V-0.0625H26.6445V1.9375ZM27.6903 1.2929L33.5497 16.7031L35.4191 15.9923L29.5597 0.582096L27.6903 1.2929ZM34.3455 17.338L35.5995 17.5138L35.8771 15.5331L34.6232 15.3573L34.3455 17.338ZM34.7383 16.5234V18H36.7383V16.5234H34.7383ZM35.7383 17H30.8398V19H35.7383V17ZM31.8398 18V16.5234H29.8398V18H31.8398ZM31.01 17.5088L32.2991 17.2862L31.9587 15.3154L30.6696 15.538L31.01 17.5088ZM33.0703 15.9636L31.9453 12.8229L30.0625 13.4974L31.1875 16.638L33.0703 15.9636ZM31.0039 12.1602H24.1719V14.1602H31.0039V12.1602ZM23.2338 12.8136L22.0737 15.9543L23.9498 16.6473L25.1099 13.5067L23.2338 12.8136ZM22.8415 17.2862L24.1306 17.5088L24.471 15.538L23.1819 15.3154L22.8415 17.2862ZM23.3008 16.5234V18H25.3008V16.5234H23.3008ZM24.3008 17H19.4141V19H24.3008V17ZM24.8867 12.2266H30.3008V10.2266H24.8867V12.2266ZM31.2412 10.8866L28.7334 3.94911L26.8525 4.62902L29.3603 11.5665L31.2412 10.8866ZM28.7328 3.94732L28.5921 3.5606L26.7126 4.24409L26.8532 4.63081L28.7328 3.94732ZM27.6523 2.90234H27.582V4.90234H27.6523V2.90234ZM26.6422 3.5606L26.5016 3.94732L28.3812 4.63081L28.5218 4.24409L26.6422 3.5606ZM26.503 3.9435L23.9483 10.881L25.8251 11.5721L28.3798 4.63462L26.503 3.9435ZM37.5195 18H36.5195V19H37.5195V18ZM37.5195 16.5234L37.3502 15.5379L36.5195 15.6806V16.5234H37.5195ZM39.4297 16.1953L39.599 17.1809L40.4297 17.0382V16.1953H39.4297ZM39.4297 2.75391H40.4297V1.91104L39.599 1.76834L39.4297 2.75391ZM37.5195 2.42578H36.5195V3.26865L37.3502 3.41135L37.5195 2.42578ZM37.5195 0.9375V-0.0625H36.5195V0.9375H37.5195ZM50.1523 0.9375H51.1523V-0.0625H50.1523V0.9375ZM50.1523 5.03906V6.03906H51.1523V5.03906H50.1523ZM48.3008 5.03906L47.3069 5.14949L47.4057 6.03906H48.3008V5.03906ZM48.043 2.71875L49.0369 2.60832L48.938 1.71875H48.043V2.71875ZM41.7383 2.71875V1.71875H40.7383V2.71875H41.7383ZM41.7383 8.27344H40.7383V9.27344H41.7383V8.27344ZM48.0312 8.27344H49.0312V7.27344H48.0312V8.27344ZM48.0312 10.0898V11.0898H49.0312V10.0898H48.0312ZM41.7383 10.0898V9.08984H40.7383V10.0898H41.7383ZM41.7383 16.2656H40.7383V17.2656H41.7383V16.2656ZM48.418 16.2656V17.2656H49.3145L49.412 16.3744L48.418 16.2656ZM48.6758 13.9102V12.9102H47.7793L47.6817 13.8014L48.6758 13.9102ZM50.5156 13.9102H51.5156V12.9102H50.5156V13.9102ZM50.5156 18V19H51.5156V18H50.5156ZM38.5195 18V16.5234H36.5195V18H38.5195ZM37.6888 17.509L39.599 17.1809L39.2604 15.2097L37.3502 15.5379L37.6888 17.509ZM40.4297 16.1953V2.75391H38.4297V16.1953H40.4297ZM39.599 1.76834L37.6888 1.44022L37.3502 3.41135L39.2604 3.73947L39.599 1.76834ZM38.5195 2.42578V0.9375H36.5195V2.42578H38.5195ZM37.5195 1.9375H50.1523V-0.0625H37.5195V1.9375ZM49.1523 0.9375V5.03906H51.1523V0.9375H49.1523ZM50.1523 4.03906H48.3008V6.03906H50.1523V4.03906ZM49.2947 4.92863L49.0369 2.60832L47.0491 2.82918L47.3069 5.14949L49.2947 4.92863ZM48.043 1.71875H41.7383V3.71875H48.043V1.71875ZM40.7383 2.71875V8.27344H42.7383V2.71875H40.7383ZM41.7383 9.27344H48.0312V7.27344H41.7383V9.27344ZM47.0312 8.27344V10.0898H49.0312V8.27344H47.0312ZM48.0312 9.08984H41.7383V11.0898H48.0312V9.08984ZM40.7383 10.0898V16.2656H42.7383V10.0898H40.7383ZM41.7383 17.2656H48.418V15.2656H41.7383V17.2656ZM49.412 16.3744L49.6698 14.019L47.6817 13.8014L47.4239 16.1568L49.412 16.3744ZM48.6758 14.9102H50.5156V12.9102H48.6758V14.9102ZM49.5156 13.9102V18H51.5156V13.9102H49.5156ZM50.5156 17H37.5195V19H50.5156V17ZM55.4023 15.5859L54.5517 16.1118L54.5539 16.1152L55.4023 15.5859ZM54.6055 2.75391H55.6055V1.91104L54.7748 1.76834L54.6055 2.75391ZM52.6953 2.42578H51.6953V3.26865L52.526 3.41135L52.6953 2.42578ZM52.6953 0.9375V-0.0625H51.6953V0.9375H52.6953ZM58.8242 0.9375H59.8242V-0.0625H58.8242V0.9375ZM58.8242 2.42578L58.9935 3.41135L59.8242 3.26865V2.42578H58.8242ZM56.9141 2.75391L56.7448 1.76834L55.9141 1.91104V2.75391H56.9141ZM57.9805 15.4102L57.2979 16.141L57.3022 16.145L57.9805 15.4102ZM63.5703 15.4219L62.9084 14.6723L62.9045 14.6758L63.5703 15.4219ZM64.6719 2.75391H65.6719V1.91104L64.8412 1.76834L64.6719 2.75391ZM62.7617 2.42578H61.7617V3.26865L62.5924 3.41135L62.7617 2.42578ZM62.7617 0.9375V-0.0625H61.7617V0.9375H62.7617ZM68.8906 0.9375H69.8906V-0.0625H68.8906V0.9375ZM68.8906 2.42578L69.0599 3.41135L69.8906 3.26865V2.42578H68.8906ZM66.9805 2.75391L66.8112 1.76834L65.9805 1.91104V2.75391H66.9805ZM65.2578 16.7695L65.9112 17.5266L65.9116 17.5262L65.2578 16.7695ZM60.7227 17.2461C59.6846 17.2461 58.7943 17.0428 58.0292 16.6603L57.1348 18.4491C58.2135 18.9885 59.4169 19.2461 60.7227 19.2461V17.2461ZM58.0292 16.6603C57.2675 16.2794 56.6818 15.7475 56.2508 15.0566L54.5539 16.1152C55.1854 17.1275 56.0528 17.9081 57.1348 18.4491L58.0292 16.6603ZM56.2529 15.0601C55.836 14.3856 55.6055 13.5479 55.6055 12.5039H53.6055C53.6055 13.8506 53.9062 15.0675 54.5518 16.1118L56.2529 15.0601ZM55.6055 12.5039V2.75391H53.6055V12.5039H55.6055ZM54.7748 1.76834L52.8646 1.44022L52.526 3.41135L54.4362 3.73947L54.7748 1.76834ZM53.6953 2.42578V0.9375H51.6953V2.42578H53.6953ZM52.6953 1.9375H58.8242V-0.0625H52.6953V1.9375ZM57.8242 0.9375V2.42578H59.8242V0.9375H57.8242ZM58.6549 1.44022L56.7448 1.76834L57.0834 3.73947L58.9935 3.41135L58.6549 1.44022ZM55.9141 2.75391V12.5039H57.9141V2.75391H55.9141ZM55.9141 12.5039C55.9141 13.9644 56.3269 15.234 57.2979 16.1409L58.6631 14.6794C58.2121 14.2581 57.9141 13.5903 57.9141 12.5039H55.9141ZM57.3022 16.145C58.2302 17.0016 59.4136 17.3945 60.7578 17.3945V15.3945C59.8208 15.3945 59.1526 15.1312 58.6587 14.6754L57.3022 16.145ZM60.7578 17.3945C62.1053 17.3945 63.2944 17.0085 64.2362 16.168L62.9045 14.6758C62.3931 15.1321 61.7072 15.3945 60.7578 15.3945V17.3945ZM64.2322 16.1715C65.2455 15.2767 65.6719 13.9894 65.6719 12.5039H63.6719C63.6719 13.6121 63.3638 14.2702 62.9084 14.6723L64.2322 16.1715ZM65.6719 12.5039V2.75391H63.6719V12.5039H65.6719ZM64.8412 1.76834L62.931 1.44022L62.5924 3.41135L64.5026 3.73947L64.8412 1.76834ZM63.7617 2.42578V0.9375H61.7617V2.42578H63.7617ZM62.7617 1.9375H68.8906V-0.0625H62.7617V1.9375ZM67.8906 0.9375V2.42578H69.8906V0.9375H67.8906ZM68.7213 1.44022L66.8112 1.76834L67.1498 3.73947L69.0599 3.41135L68.7213 1.44022ZM65.9805 2.75391V12.5039H67.9805V2.75391H65.9805ZM65.9805 12.5039C65.9805 14.1346 65.4849 15.2519 64.6041 16.0128L65.9116 17.5262C67.3276 16.3028 67.9805 14.5763 67.9805 12.5039H65.9805ZM64.6045 16.0125C63.6874 16.8039 62.4275 17.2461 60.7227 17.2461V19.2461C62.7834 19.2461 64.547 18.7039 65.9112 17.5266L64.6045 16.0125Z" fill="black"/>
</g>
<defs>
<filter id="filter0_d_2_4" x="0.238281" y="0.9375" width="72.6523" height="25.3086" filterUnits="userSpaceOnUse" color-interpolation-filters="sRGB">
<feFlood flood-opacity="0" result="BackgroundImageFix"/>
<feColorMatrix in="SourceAlpha" type="matrix" values="0 0 0 0 0 0 0 0 0 0 0 0 0 0 0 0 0 0 127 0" result="hardAlpha"/>
<feOffset dy="4"/>
<feGaussianBlur stdDeviation="2"/>
<feComposite in2="hardAlpha" operator="out"/>
<feColorMatrix type="matrix" values="0 0 0 0 0 0 0 0 0 0 0 0 0 0 0 0 0 0 0.25 0"/>
<feBlend mode="normal" in2="BackgroundImageFix" result="effect1_dropShadow_2_4"/>
<feBlend mode="normal" in="SourceGraphic" in2="effect1_dropShadow_2_4" result="shape"/>
</filter>
</defs>
</svg>
